<svg xmlns="http://www.w3.org/2000/svg" width="1200" height="900" viewBox="0 0 1200 900" role="img" aria-labelledby="title desc">
  <title id="title">Before the Box default ingredient image</title>
  <desc id="desc">Ingredient flat-lay with jars and measuring spoons on a rustic table.</desc>
  <defs>
    <linearGradient id="surface" x1="0" x2="1" y1="0" y2="1">
      <stop offset="0" stop-color="#f6ead7"/>
      <stop offset="0.58" stop-color="#fffaf0"/>
      <stop offset="1" stop-color="#b9a07f"/>
    </linearGradient>
  </defs>
  <rect width="1200" height="900" fill="url(#surface)"/>
  <g opacity="0.42" stroke="#8d765d" stroke-width="4">
    <path d="M0 225H1200"/>
    <path d="M0 456H1200"/>
    <path d="M0 687H1200"/>
  </g>
  <circle cx="315" cy="335" r="122" fill="#fffdf8" opacity="0.8" stroke="#75634f" stroke-width="9"/>
  <circle cx="315" cy="335" r="74" fill="#d8c49f"/>
  <rect x="510" y="190" width="178" height="360" rx="36" fill="#fff1d7" stroke="#75634f" stroke-width="9"/>
  <rect x="532" y="230" width="134" height="56" rx="16" fill="#77856f"/>
  <rect x="740" y="270" width="150" height="270" rx="34" fill="#f6ead7" stroke="#75634f" stroke-width="9"/>
  <rect x="763" y="304" width="104" height="46" rx="13" fill="#b87957"/>
  <g fill="none" stroke="#53604e" stroke-width="17" stroke-linecap="round">
    <path d="M250 650c145-48 290-48 435 0"/>
    <path d="M620 655c95-35 185-35 270 0"/>
  </g>
  <text x="600" y="790" text-anchor="middle" font-family="Georgia, serif" font-size="45" fill="#2f2a24">Before the Box Ingredients</text>
</svg>
