<svg xmlns="http://www.w3.org/2000/svg" width="1600" height="1000" viewBox="0 0 1600 1000" role="img" aria-labelledby="title desc">
  <title id="title">Before the Box default recipe hero image</title>
  <desc id="desc">Warm farmhouse pantry scene with jars, measuring spoons, and rustic wooden table.</desc>
  <defs>
    <linearGradient id="table" x1="0" x2="1" y1="0" y2="1">
      <stop offset="0" stop-color="#eadbc4"/>
      <stop offset="0.52" stop-color="#fff8ec"/>
      <stop offset="1" stop-color="#b9a07f"/>
    </linearGradient>
    <radialGradient id="light" cx="22%" cy="18%" r="55%">
      <stop offset="0" stop-color="#ffffff" stop-opacity="0.9"/>
      <stop offset="1" stop-color="#ffffff" stop-opacity="0"/>
    </radialGradient>
  </defs>
  <rect width="1600" height="1000" fill="url(#table)"/>
  <rect width="1600" height="1000" fill="url(#light)"/>
  <g opacity="0.5" stroke="#8d765d" stroke-width="5">
    <path d="M0 240H1600"/>
    <path d="M0 510H1600"/>
    <path d="M0 780H1600"/>
  </g>
  <g transform="translate(520 210)">
    <rect x="0" y="120" width="560" height="440" rx="54" fill="#fffdf8" opacity="0.76"/>
    <rect x="86" y="62" width="176" height="420" rx="34" fill="#f5ead8" stroke="#7d6a55" stroke-width="10"/>
    <rect x="106" y="92" width="136" height="64" rx="18" fill="#77856f"/>
    <rect x="330" y="112" width="146" height="330" rx="30" fill="#fff3dc" stroke="#7d6a55" stroke-width="10"/>
    <rect x="348" y="146" width="110" height="48" rx="14" fill="#b87957"/>
    <circle cx="184" cy="328" r="68" fill="#d8c49f"/>
    <circle cx="404" cy="286" r="50" fill="#c0b38f"/>
    <path d="M42 520c150-54 320-54 480 0" fill="none" stroke="#53604e" stroke-width="16" stroke-linecap="round"/>
  </g>
  <text x="800" y="815" text-anchor="middle" font-family="Georgia, serif" font-size="62" fill="#2f2a24">Before the Box</text>
  <text x="800" y="878" text-anchor="middle" font-family="Georgia, serif" font-size="34" fill="#53604e">Make the Thing. Skip the Label.</text>
</svg>
