<svg xmlns="http://www.w3.org/2000/svg" width="1000" height="1500" viewBox="0 0 1000 1500" role="img" aria-labelledby="title desc">
  <title id="title">Before the Box default Pinterest recipe image</title>
  <desc id="desc">Vertical farmhouse pantry image with Before the Box branding.</desc>
  <defs>
    <linearGradient id="bg" x1="0" x2="1" y1="0" y2="1">
      <stop offset="0" stop-color="#fff8ec"/>
      <stop offset="0.55" stop-color="#eadbc4"/>
      <stop offset="1" stop-color="#a99171"/>
    </linearGradient>
    <radialGradient id="window" cx="20%" cy="12%" r="55%">
      <stop offset="0" stop-color="#ffffff" stop-opacity="0.95"/>
      <stop offset="1" stop-color="#ffffff" stop-opacity="0"/>
    </radialGradient>
  </defs>
  <rect width="1000" height="1500" fill="url(#bg)"/>
  <rect width="1000" height="1500" fill="url(#window)"/>
  <g opacity="0.42" stroke="#8d765d" stroke-width="4">
    <path d="M0 310H1000"/>
    <path d="M0 645H1000"/>
    <path d="M0 980H1000"/>
    <path d="M0 1315H1000"/>
  </g>
  <text x="500" y="130" text-anchor="middle" font-family="Georgia, serif" font-size="54" fill="#2f2a24">Before the Box</text>
  <g transform="translate(185 250)">
    <rect x="0" y="0" width="630" height="690" rx="62" fill="#fffdf8" opacity="0.8"/>
    <rect x="112" y="118" width="184" height="430" rx="38" fill="#f6ead7" stroke="#75634f" stroke-width="10"/>
    <rect x="132" y="152" width="144" height="66" rx="18" fill="#77856f"/>
    <rect x="355" y="160" width="150" height="360" rx="34" fill="#fff1d7" stroke="#75634f" stroke-width="10"/>
    <rect x="377" y="198" width="106" height="54" rx="14" fill="#b87957"/>
    <circle cx="210" cy="384" r="72" fill="#d5c096"/>
    <circle cx="430" cy="350" r="54" fill="#c4b78f"/>
    <path d="M100 615c150-50 310-50 462 0" fill="none" stroke="#53604e" stroke-width="17" stroke-linecap="round"/>
  </g>
  <rect x="90" y="1040" width="820" height="230" rx="22" fill="#fffdf8" opacity="0.86"/>
  <text x="500" y="1145" text-anchor="middle" font-family="Georgia, serif" font-size="58" fill="#2f2a24">Recipe Title</text>
  <text x="500" y="1226" text-anchor="middle" font-family="Georgia, serif" font-size="34" fill="#53604e">Make the Thing. Skip the Label.</text>
</svg>
